Coordinates
version=1
nRows=29
nColumns=34
inDegrees=no

Units are S.I. units (second, meters, Newtons, ...)
If the header above contains a line with 'inDegrees', this indicates whether rotational values are in degrees (yes) or radians (no).

endheader
time	pelvis_tilt	pelvis_list	pelvis_rotation	pelvis_tx	pelvis_ty	pelvis_tz	hip_flexion_r	hip_adduction_r	hip_rotation_r	knee_angle_r	ankle_angle_r	subtalar_angle_r	mtp_angle_r	hip_flexion_l	hip_adduction_l	hip_rotation_l	knee_angle_l	ankle_angle_l	subtalar_angle_l	mtp_angle_l	lumbar_extension	lumbar_bending	lumbar_rotation	arm_flex_r	arm_add_r	arm_rot_r	elbow_flex_r	pro_sup_r	arm_flex_l	arm_add_l	arm_rot_l	elbow_flex_l	pro_sup_l
0	0.0148669	0.0466464	0.0871939	-0.140505	0.91914	-0.306725	0.488158	-0.179252	-0.424847	0.184109	0.303347	0.127462	0	-0.326543	-0.0161574	-0.18364	0.240733	0.34809	0.164126	0	-0.106203	-0.0466234	-0.181203	-0.285659	-0.0540332	-0.476341	0.4595	2.09	0.171472	-0.163426	-0.0414863	0.947887	2.09
0.01	0.00861459	0.0441357	0.0875475	-0.127087	0.918956	-0.303767	0.495083	-0.177082	-0.426107	0.203189	0.279141	0.12693	0	-0.314368	-0.0257653	-0.178873	0.272856	0.321887	0.158046	0	-0.0975984	-0.0437897	-0.18762	-0.275518	-0.0578838	-0.466901	0.454887	2.09	0.154698	-0.159805	-0.0602478	0.932226	2.09
0.02	0.00644632	0.0361594	0.0878049	-0.11275	0.919335	-0.300773	0.492332	-0.167595	-0.428717	0.215061	0.253884	0.122853	0	-0.308304	-0.0411969	-0.175806	0.301914	0.291235	0.150264	0	-0.0920164	-0.0340415	-0.188767	-0.26946	-0.0616897	-0.461244	0.453209	2.09	0.14009	-0.153594	-0.0742811	0.911865	2.09
0.03	0.00662075	0.0270153	0.0882233	-0.0979475	0.920049	-0.297604	0.486681	-0.157084	-0.431503	0.228787	0.232148	0.117641	0	-0.303373	-0.0586744	-0.175113	0.332972	0.256852	0.142122	0	-0.0883136	-0.0230265	-0.187381	-0.26542	-0.0647003	-0.457985	0.453764	2.09	0.126502	-0.147071	-0.0856874	0.888773	2.09
0.04	0.00935273	0.0154319	0.0884853	-0.0830702	0.921409	-0.294394	0.473417	-0.141974	-0.432515	0.234489	0.208999	0.107376	0	-0.297592	-0.0795144	-0.177782	0.368747	0.21776	0.132096	0	-0.087419	-0.00887665	-0.184664	-0.260785	-0.0681532	-0.455274	0.455061	2.09	0.113976	-0.139819	-0.0964331	0.862227	2.09
0.05	0.00809657	0.0101186	0.0857446	-0.068304	0.922419	-0.290921	0.47309	-0.136399	-0.432593	0.257899	0.196604	0.104483	0	-0.283324	-0.0931448	-0.182309	0.411561	0.173439	0.115744	0	-0.0825171	-0.00267715	-0.178326	-0.257115	-0.0703325	-0.453314	0.458235	2.09	0.101031	-0.13393	-0.106431	0.834875	2.09
0.06	0.0061181	0.00627305	0.0816908	-0.0536469	0.923584	-0.287359	0.474014	-0.133385	-0.436808	0.284088	0.191013	0.11031	0	-0.263507	-0.104925	-0.186441	0.460826	0.121109	0.087185	0	-0.0770413	0.00172515	-0.170248	-0.253115	-0.0725055	-0.451088	0.462473	2.09	0.0882733	-0.128413	-0.116264	0.805571	2.09
0.07	0.00637462	-0.000937278	0.0767807	-0.0392655	0.925351	-0.283837	0.467198	-0.124369	-0.440536	0.300024	0.184082	0.113657	0	-0.241191	-0.120719	-0.19237	0.515721	0.0610684	0.0479912	0	-0.0746031	0.0105225	-0.160915	-0.247264	-0.0761248	-0.447398	0.467125	2.09	0.0769714	-0.122041	-0.12642	0.773317	2.09
0.08	0.00741815	-0.00910323	0.0712849	-0.0249712	0.927232	-0.280136	0.458457	-0.113232	-0.442639	0.314163	0.180303	0.115228	0	-0.216018	-0.13822	-0.198519	0.574581	-0.00560644	-0.0022405	0	-0.0730787	0.020103	-0.15034	-0.241277	-0.079966	-0.442474	0.473231	2.09	0.0661256	-0.11616	-0.136555	0.740238	2.09
0.09	0.0105407	-0.0214261	0.0655203	-0.0109504	0.929491	-0.276403	0.441837	-0.094178	-0.441859	0.316277	0.174816	0.11169	0	-0.190078	-0.160694	-0.204484	0.635319	-0.0764921	-0.0618409	0	-0.0743365	0.03458	-0.138801	-0.234117	-0.0851917	-0.435353	0.480287	2.09	0.0567085	-0.109773	-0.147071	0.705604	2.09
0.1	0.00835894	-0.0289396	0.0570371	0.00261634	0.93092	-0.27245	0.437357	-0.0815979	-0.437751	0.329932	0.177736	0.1117	0	-0.155567	-0.177012	-0.208278	0.698874	-0.147854	-0.131906	0	-0.0705509	0.0427586	-0.124178	-0.228	-0.0898612	-0.426803	0.489864	2.09	0.0471194	-0.104869	-0.157871	0.672682	2.09
0.11	0.00780988	-0.0370108	0.0477774	0.0158244	0.932589	-0.268578	0.428105	-0.0663661	-0.431674	0.337067	0.181743	0.111393	0	-0.123807	-0.192815	-0.210628	0.757294	-0.212941	-0.203025	0	-0.0695034	0.0518676	-0.108313	-0.220801	-0.0952647	-0.417969	0.500815	2.09	0.038944	-0.0999189	-0.169435	0.639364	2.09
0.12	0.00653098	-0.043339	0.0384091	0.0286595	0.934073	-0.264794	0.420657	-0.0533499	-0.425038	0.346157	0.189747	0.112555	0	-0.0896351	-0.206791	-0.211293	0.815436	-0.262437	-0.266589	0	-0.0684417	0.0587881	-0.0926477	-0.212754	-0.101979	-0.402603	0.511547	2.09	0.03091	-0.0958187	-0.182128	0.607595	2.09
0.13	0.00714348	-0.0501285	0.0306384	0.0412178	0.935773	-0.261271	0.408403	-0.0390774	-0.417721	0.349928	0.197764	0.111182	0	-0.056765	-0.22001	-0.207659	0.869886	-0.297468	-0.324934	0	-0.0700629	0.0663884	-0.0784074	-0.203388	-0.109331	-0.387246	0.522782	2.09	0.0236934	-0.0920201	-0.19555	0.576379	2.09
0.14	0.00856161	-0.0562971	0.024532	0.053526	0.937518	-0.258008	0.394353	-0.0257313	-0.410426	0.352077	0.20645	0.108155	0	-0.0236063	-0.231438	-0.200421	0.921156	-0.315188	-0.372961	0	-0.072983	0.0732385	-0.0659958	-0.192768	-0.117289	-0.370734	0.533843	2.09	0.0166041	-0.0889131	-0.20946	0.546598	2.09
0.15	0.0106877	-0.0606151	0.0202409	0.0655555	0.939373	-0.255019	0.378884	-0.0150714	-0.404335	0.353196	0.215777	0.105555	0	0.00913721	-0.239719	-0.191061	0.967238	-0.316411	-0.40759	0	-0.0771299	0.0779188	-0.0557538	-0.180464	-0.1253	-0.354145	0.544077	2.09	0.00957108	-0.0868525	-0.223238	0.518375	2.09
0.16	0.0129138	-0.0588519	0.0189952	0.077014	0.94154	-0.252506	0.363387	-0.0125432	-0.400248	0.354372	0.225165	0.104583	0	0.0391224	-0.283768	-0.250287	1.01645	-0.260678	-0.352593	0	-0.0824788	0.0758246	-0.0497739	-0.164787	-0.132773	-0.335769	0.551173	2.09	0.00308161	-0.0864993	-0.236954	0.491429	2.09
0.17	0.0131082	-0.0623584	0.0191408	0.0885119	0.94322	-0.250054	0.348845	-0.00464034	-0.398966	0.353163	0.233474	0.102535	0	0.076582	-0.290911	-0.2369	1.05437	-0.24258	-0.362136	0	-0.0847533	0.0794232	-0.0446788	-0.150277	-0.140709	-0.320699	0.560596	2.09	-0.00485797	-0.0858582	-0.250127	0.467387	2.09
0.18	0.00469551	-0.0643169	0.0258101	0.0989691	0.944119	-0.248471	0.345174	-0.00210263	-0.404327	0.353695	0.240331	0.100367	0	0.0911419	-0.291419	-0.251825	1.03937	-0.185398	-0.362684	0	-0.0784921	0.0817973	-0.0473454	-0.134079	-0.148831	-0.305522	0.569236	2.09	-0.0130037	-0.0854017	-0.26401	0.445826	2.09
0.19	0.0171188	-0.0627602	0.0206331	0.11161	0.947173	-0.245958	0.313147	0.00284554	-0.399849	0.346735	0.248679	0.104543	0	0.148483	-0.240811	-0.139781	1.09971	-0.253346	-0.441107	0	-0.0926002	0.0796285	-0.0376301	-0.118736	-0.156237	-0.292099	0.577578	2.09	-0.0236307	-0.0854607	-0.278369	0.427248	2.09
0.2	0.0192444	-0.0578284	0.0226873	0.122858	0.949416	-0.244328	0.294729	-8.68874e-05	-0.402862	0.342731	0.255383	0.109458	0	0.180573	-0.231025	-0.130126	1.11603	-0.234206	-0.431524	0	-0.0969799	0.0741719	-0.0363614	-0.101234	-0.162516	-0.280904	0.58477	2.09	-0.0334817	-0.0862523	-0.292127	0.410615	2.09
0.21	0.0203935	-0.0546744	0.02482	0.134094	0.951498	-0.24266	0.276663	-0.00101041	-0.407402	0.337204	0.260886	0.115427	0	0.212914	-0.222875	-0.121905	1.12753	-0.208895	-0.413453	0	-0.0998535	0.0704106	-0.0356181	-0.083738	-0.168503	-0.27073	0.592041	2.09	-0.0447929	-0.0868917	-0.307552	0.397687	2.09
0.22	0.0210623	-0.050175	0.0270784	0.145134	0.953601	-0.24104	0.259161	-0.00409872	-0.415271	0.331905	0.267042	0.126911	0	0.244201	-0.213331	-0.11687	1.13283	-0.176294	-0.385756	0	-0.102406	0.0649286	-0.0358952	-0.0651222	-0.173663	-0.260941	0.598091	2.09	-0.0570327	-0.0876492	-0.325698	0.388629	2.09
0.23	0.0200745	-0.0474362	0.0287269	0.1561	0.955388	-0.239427	0.243385	-0.00412536	-0.418456	0.325243	0.270101	0.130862	0	0.276628	-0.204901	-0.112627	1.13378	-0.143952	-0.359581	0	-0.102798	0.0613337	-0.0354858	-0.0471085	-0.178603	-0.253458	0.605019	2.09	-0.0702759	-0.0883994	-0.341768	0.382163	2.09
0.24	0.0191346	-0.0444155	0.0292896	0.167001	0.957099	-0.237788	0.227708	-0.00424287	-0.420784	0.318647	0.27345	0.135667	0	0.306796	-0.196464	-0.111664	1.12875	-0.107755	-0.328754	0	-0.103252	0.0572641	-0.0344335	-0.028775	-0.183115	-0.24654	0.611697	2.09	-0.0845195	-0.0891709	-0.358146	0.37915	2.09
0.25	0.0182072	-0.0405921	0.0288844	0.177775	0.95873	-0.236138	0.212377	-0.00501395	-0.42153	0.31236	0.277238	0.140297	0	0.334372	-0.187684	-0.114368	1.11722	-0.0704332	-0.295323	0	-0.103928	0.052186	-0.0326397	-0.0101997	-0.187071	-0.240489	0.618339	2.09	-0.0992614	-0.0902672	-0.373099	0.378765	2.09
0.26	0.0172095	-0.0372439	0.0273401	0.188519	0.96016	-0.234468	0.197356	-0.00495307	-0.420355	0.306157	0.281665	0.144045	0	0.35995	-0.179885	-0.119513	1.10043	-0.0347691	-0.262089	0	-0.10447	0.0475779	-0.0297099	0.00798837	-0.19087	-0.23531	0.625774	2.09	-0.114585	-0.0914229	-0.386244	0.380656	2.09
0.27	0.0162873	-0.0339952	0.0248701	0.199219	0.961414	-0.232789	0.182485	-0.00455706	-0.417402	0.300032	0.286746	0.146714	0	0.383126	-0.172865	-0.127307	1.07814	-0.00257431	-0.230163	0	-0.105123	0.043039	-0.0257572	0.025736	-0.194438	-0.23101	0.634049	2.09	-0.129997	-0.0927643	-0.397317	0.383985	2.09
0.28	0.0154379	-0.0308762	0.021757	0.209892	0.962478	-0.231126	0.167719	-0.00397759	-0.413412	0.293987	0.292466	0.148621	0	0.403955	-0.166466	-0.137217	1.05052	0.0236647	-0.202427	0	-0.105837	0.0386502	-0.0209174	0.0428197	-0.197827	-0.227637	0.643304	2.09	-0.145074	-0.0943657	-0.405815	0.387769	2.09
